<svg width="54" height="46" viewBox="0 0 54 46" fill="none" xmlns="http://www.w3.org/2000/svg">
<path d="M14.6875 0.1875H33C36.625 0.1875 39.3229 0.34375 41.0938 0.65625C42.8854 0.947917 44.4792 1.57292 45.875 2.53125C47.2917 3.48958 48.4688 4.77083 49.4062 6.375C50.3438 7.95833 50.8125 9.73958 50.8125 11.7188C50.8125 13.8646 50.2292 15.8333 49.0625 17.625C47.9167 19.4167 46.3542 20.7604 44.375 21.6562C47.1667 22.4688 49.3125 23.8542 50.8125 25.8125C52.3125 27.7708 53.0625 30.0729 53.0625 32.7188C53.0625 34.8021 52.5729 36.8333 51.5938 38.8125C50.6354 40.7708 49.3125 42.3438 47.625 43.5312C45.9583 44.6979 43.8958 45.4167 41.4375 45.6875C39.8958 45.8542 36.1771 45.9583 30.2812 46H14.6875V0.1875ZM23.9375 7.8125V18.4062H30C33.6042 18.4062 35.8438 18.3542 36.7188 18.25C38.3021 18.0625 39.5417 17.5208 40.4375 16.625C41.3542 15.7083 41.8125 14.5104 41.8125 13.0312C41.8125 11.6146 41.4167 10.4688 40.625 9.59375C39.8542 8.69792 38.6979 8.15625 37.1562 7.96875C36.2396 7.86458 33.6042 7.8125 29.25 7.8125H23.9375ZM23.9375 26.0312V38.2812H32.5C35.8333 38.2812 37.9479 38.1875 38.8438 38C40.2188 37.75 41.3333 37.1458 42.1875 36.1875C43.0625 35.2083 43.5 33.9062 43.5 32.2812C43.5 30.9062 43.1667 29.7396 42.5 28.7812C41.8333 27.8229 40.8646 27.125 39.5938 26.6875C38.3438 26.25 35.6146 26.0312 31.4062 26.0312H23.9375Z" fill="white"/>
<path d="M18 18H0V26H18V18Z" fill="white"/>
<path d="M12 29H0V46H12V29Z" fill="white"/>
</svg>
